{"title":"Bellator 157 Dynamite 2 Prelims 720p WEB h264 [TJET]","uid":15095670,"size":1869485887,"categoryP":"video","categoryS":"hd___tv_shows","magnet":"?xt=urn:btih:545c855893448a44192bbc07cb5232f5781dcda1&amp;dn=Bellator+157+Dynamite+2+Prelims+720p+WEB+h264+%5BTJET%5D&amp;tr=udp%3A%2F%2Ftracker.leechers-paradise.org%3A6969&amp;tr=udp%3A%2F%2Fzer0day.ch%3A1337&amp;tr=udp%3A%2F%2Fopen.demonii.com%3A1337&amp;tr=udp%3A%2F%2Ftracker.coppersurfer.tk%3A6969&amp;tr=udp%3A%2F%2Fexodus.desync.com%3A6969","seeders":7,"leechers":0,"uploader":"CenaCme","files":2,"time":1466916650,"description":"MMA Garrett Mueller vs Rashard Lovelace\r\nMMA Isao Kobayashi vs Justin Lawrence\r\nKB Mimi Kutzin vs Tara Walker\r\nMMA Chris Heatherly v Joaquin Buckley\r\nKB Brad Jones vs Tyler Claussen\r\nMMA Chel Erwin-Davis vs Kevin Engel\r\n\r\nGeneral\r\nComplete name                            : Bellator.157.Dynamite.2.Prelims.720p.WEB.h264.mp4\r\nFormat                                   : MPEG-4\r\nFormat profile                           : Base Media\r\nCodec ID                                 : isom\r\nFile size                                : 1.74 GiB\r\nDuration                                 : 1h 11mn\r\nOverall bit rate mode                    : Constant\r\nOverall bit rate                         : 3 504 Kbps\r\nWriting application                      : Lavf57.25.100\r\n\r\nVideo\r\nID                                       : 1\r\nFormat                                   : AVC\r\nFormat/Info                              : Advanced Video Codec\r\nFormat profile                           :   \r\nFormat settings, CABAC                   : Yes\r\nFormat settings, ReFrames                : 4 frames\r\nCodec ID                                 : avc1\r\nCodec ID/Info                            : Advanced Video Coding\r\nDuration                                 : 1h 11mn\r\nBit rate mode                            : Constant\r\nBit rate                                 : 3 404 Kbps\r\nWidth                                    : 1 280 pixels\r\nHeight                                   : 720 pixels\r\nDisplay aspect ratio                     : 16:9\r\nFrame rate mode                          : Variable\r\nFrame rate                               : 29.970 fps\r\nMinimum frame rate                       : 29.412 fps\r\nMaximum frame rate                       : 30.303 fps\r\nStandard                                 : NTSC\r\nColor space                              : YUV\r\nChroma subsampling                       : 4:2:0\r\nBit depth                                : 8 bits\r\nScan type                                : Progressive\r\nBits/(Pixel*Frame)                       : 0.123\r\nStream size                              : 1.69 GiB (97%)\r\nColor primaries                          : BT.709-5, BT.1361, IEC 61966-2-4, SMPTE RP177\r\nTransfer characteristics                 : BT.709-5, BT.1361\r\nMatrix coefficients                      : BT.709-5, BT.1361, IEC 61966-2-4 709, SMPTE RP177\r\n\r\nAudio\r\nID                                       : 2\r\nFormat                                   : AAC\r\nFormat/Info                              : Advanced Audio Codec\r\nFormat profile                           : HE-AAC / LC\r\nCodec ID                                 : 40\r\nDuration                                 : 1h 11mn\r\nBit rate mode                            : Constant\r\nBit rate                                 : 96.0 Kbps\r\nChannel(s)                               : 2 channels\r\nChannel positions                        : Front: L R\r\nSampling rate                            : 48.0 KHz / 24.0 KHz\r\nCompression mode                         : Lossy\r\nStream size                              : 48.2 MiB (3%)\r\n\r\n\r\nThumb sheet:\r\n \nhttps://extraimago.com/image/a5CN","torrent":{"xt":"urn:btih:545c855893448a44192bbc07cb5232f5781dcda1","amp;dn":"Bellator+157+Dynamite+2+Prelims+720p+WEB+h264+%5BTJET%5D","amp;tr":["udp%3A%2F%2Ftracker.leechers-paradise.org%3A6969","udp%3A%2F%2Fzer0day.ch%3A1337","udp%3A%2F%2Fopen.demonii.com%3A1337","udp%3A%2F%2Ftracker.coppersurfer.tk%3A6969","udp%3A%2F%2Fexodus.desync.com%3A6969"],"infoHash":"545c855893448a44192bbc07cb5232f5781dcda1","infoHashBuffer":{"type":"Buffer","data":[84,92,133,88,147,68,138,68,25,43,188,7,203,82,50,245,120,29,205,161]},"announce":[],"urlList":[]}}